<svg aria-hidden="true" style="position: absolute; width: 0; height: 0; overflow: hidden;" version="1.1" xmlns="http://www.w3.org/2000/svg" xmlns:xlink="http://www.w3.org/1999/xlink">
<defs>
<symbol id="icon-glass" viewBox="0 0 640 640">
<path d="M480 272C480 317.9 465.1 360.3 440 394.7L566.6 521.4C579.1 533.9 579.1 554.2 566.6 566.7C554.1 579.2 533.8 579.2 521.3 566.7L394.7 440C360.3 465.1 317.9 480 272 480C157.1 480 64 386.9 64 272C64 157.1 157.1 64 272 64C386.9 64 480 157.1 480 272zM272 416C351.5 416 416 351.5 416 272C416 192.5 351.5 128 272 128C192.5 128 128 192.5 128 272C128 351.5 192.5 416 272 416z"/></symbol>
<symbol id="icon-person" viewBox="0 0 640 640"><path d="M240 192C240 147.8 275.8 112 320 112C364.2 112 400 147.8 400 192C400 236.2 364.2 272 320 272C275.8 272 240 236.2 240 192zM448 192C448 121.3 390.7 64 320 64C249.3 64 192 121.3 192 192C192 262.7 249.3 320 320 320C390.7 320 448 262.7 448 192zM144 544C144 473.3 201.3 416 272 416L368 416C438.7 416 496 473.3 496 544L496 552C496 565.3 506.7 576 520 576C533.3 576 544 565.3 544 552L544 544C544 446.8 465.2 368 368 368L272 368C174.8 368 96 446.8 96 544L96 552C96 565.3 106.7 576 120 576C133.3 576 144 565.3 144 552L144 544z"/></symbol>
<symbol id="icon-basket" viewBox="0 0 640 640"><path d="M320 64C326.6 64 332.9 66.7 337.4 71.5L481.4 223.5L481.9 224L560 224C577.7 224 592 238.3 592 256C592 270.5 582.4 282.7 569.2 286.7L523.1 493.9C516.6 523.2 490.6 544 460.6 544L179.3 544C149.3 544 123.3 523.2 116.8 493.9L70.8 286.7C57.6 282.8 48 270.5 48 256C48 238.3 62.3 224 80 224L158.1 224L158.6 223.5L302.6 71.5C307.1 66.7 313.4 64 320 64zM320 122.9L224.2 224L415.8 224L320 122.9zM240 328C240 314.7 229.3 304 216 304C202.7 304 192 314.7 192 328L192 440C192 453.3 202.7 464 216 464C229.3 464 240 453.3 240 440L240 328zM320 304C306.7 304 296 314.7 296 328L296 440C296 453.3 306.7 464 320 464C333.3 464 344 453.3 344 440L344 328C344 314.7 333.3 304 320 304zM448 328C448 314.7 437.3 304 424 304C410.7 304 400 314.7 400 328L400 440C400 453.3 410.7 464 424 464C437.3 464 448 453.3 448 440L448 328z"/></symbol>
<symbol id="icon-glasses" viewBox="0 0 64 32">
<path d="M8 8h12a5 5 0 015 5v3a5 5 0 01-5 5H10a6 6 0 01-6-6v-3a4 4 0 014-4zm35 0h12a5 5 0 015 5v3a5 5 0 01-5 5H45a6 6 0 01-6-6v-3a4 4 0 014-4zm-18 7h14" fill="none" stroke="currentColor" stroke-width="2" stroke-linecap="round" stroke-linejoin="round"/>
</symbol>
<symbol id="icon-uv" viewBox="0 0 64 64">
<path d="M32 6l18 6v16c0 14-8 23-18 30C22 51 14 42 14 28V12z" fill="none" stroke="currentColor" stroke-width="2"/>
<text x="32" y="38" text-anchor="middle" font-size="15" fill="currentColor" font-family="Arial">UV</text>
</symbol>
<symbol id="icon-diamond" viewBox="0 0 64 64">
<path d="M18 22h28l10 12-24 24L8 34zM8 34h48M18 22l14 36M46 22L32 58" fill="none" stroke="currentColor" stroke-width="2" stroke-linejoin="round"/>
</symbol>
<symbol id="icon-bag" viewBox="0 0 64 64">
<path d="M18 20h28l-2 34H20zm6 0v-4a8 8 0 0116 0v4" fill="none" stroke="currentColor" stroke-width="2" stroke-linecap="round" stroke-linejoin="round"/>
<text x="32" y="43" text-anchor="middle" font-size="18" fill="currentColor" font-family="Arial">B</text>
</symbol>
<symbol id="icon-arrow" viewBox="0 0 640 640"><path d="M598.6 342.6C611.1 330.1 611.1 309.8 598.6 297.3L470.6 169.3C458.1 156.8 437.8 156.8 425.3 169.3C412.8 181.8 412.8 202.1 425.3 214.6L498.7 288L64 288C46.3 288 32 302.3 32 320C32 337.7 46.3 352 64 352L498.7 352L425.3 425.4C412.8 437.9 412.8 458.2 425.3 470.7C437.8 483.2 458.1 483.2 470.6 470.7L598.6 342.7z"/></symbol>
<symbol id="icon-geo" viewBox="0 0 640 640"><path d="M128 252.6C128 148.4 214 64 320 64C426 64 512 148.4 512 252.6C512 371.9 391.8 514.9 341.6 569.4C329.8 582.2 310.1 582.2 298.3 569.4C248.1 514.9 127.9 371.9 127.9 252.6zM320 320C355.3 320 384 291.3 384 256C384 220.7 355.3 192 320 192C284.7 192 256 220.7 256 256C256 291.3 284.7 320 320 320z"/></symbol>
<symbol id="icon-time" viewBox="0 0 640 640"><path d="M528 320C528 434.9 434.9 528 320 528C205.1 528 112 434.9 112 320C112 205.1 205.1 112 320 112C434.9 112 528 205.1 528 320zM64 320C64 461.4 178.6 576 320 576C461.4 576 576 461.4 576 320C576 178.6 461.4 64 320 64C178.6 64 64 178.6 64 320zM296 184L296 320C296 328 300 335.5 306.7 340L402.7 404C413.7 411.4 428.6 408.4 436 397.3C443.4 386.2 440.4 371.4 429.3 364L344 307.2L344 184C344 170.7 333.3 160 320 160C306.7 160 296 170.7 296 184z"/></symbol>
<symbol id="icon-phone" viewBox="0 0 640 640"><path d="M224.2 89C216.3 70.1 195.7 60.1 176.1 65.4L170.6 66.9C106 84.5 50.8 147.1 66.9 223.3C104 398.3 241.7 536 416.7 573.1C493 589.3 555.5 534 573.1 469.4L574.6 463.9C580 444.2 569.9 423.6 551.1 415.8L453.8 375.3C437.3 368.4 418.2 373.2 406.8 387.1L368.2 434.3C297.9 399.4 241.3 341 208.8 269.3L253 233.3C266.9 222 271.6 202.9 264.8 186.3L224.2 89z"/></symbol>
<symbol id="icon-email" viewBox="0 0 640 640"><path d="M125.4 128C91.5 128 64 155.5 64 189.4C64 190.3 64 191.1 64.1 192L64 192L64 448C64 483.3 92.7 512 128 512L512 512C547.3 512 576 483.3 576 448L576 192L575.9 192C575.9 191.1 576 190.3 576 189.4C576 155.5 548.5 128 514.6 128L125.4 128zM528 256.3L528 448C528 456.8 520.8 464 512 464L128 464C119.2 464 112 456.8 112 448L112 256.3L266.8 373.7C298.2 397.6 341.7 397.6 373.2 373.7L528 256.3zM112 189.4C112 182 118 176 125.4 176L514.6 176C522 176 528 182 528 189.4C528 193.6 526 197.6 522.7 200.1L344.2 335.5C329.9 346.3 310.1 346.3 295.8 335.5L117.3 200.1C114 197.6 112 193.6 112 189.4z"/></symbol>
<symbol id="icon-star" viewBox="0 0 640 640"><path d="M341.5 45.1C337.4 37.1 329.1 32 320.1 32C311.1 32 302.8 37.1 298.7 45.1L225.1 189.3L65.2 214.7C56.3 216.1 48.9 222.4 46.1 231C43.3 239.6 45.6 249 51.9 255.4L166.3 369.9L141.1 529.8C139.7 538.7 143.4 547.7 150.7 553C158 558.3 167.6 559.1 175.7 555L320.1 481.6L464.4 555C472.4 559.1 482.1 558.3 489.4 553C496.7 547.7 500.4 538.8 499 529.8L473.7 369.9L588.1 255.4C594.5 249 596.7 239.6 593.9 231C591.1 222.4 583.8 216.1 574.8 214.7L415 189.3L341.5 45.1z"/></symbol>
<symbol id="icon-x-close" viewBox="0 0 32 32">
<path d="M32 3.223l-3.223-3.223-12.777 12.777-12.777-12.777-3.223 3.223 12.777 12.777-12.777 12.777 3.223 3.223 12.777-12.777 12.777 12.777 3.223-3.223-12.777-12.777 12.777-12.777z"></path>
</symbol>
<symbol id="icon-instagram" viewBox="0 0 640 640"><path d="M320.3 205C256.8 204.8 205.2 256.2 205 319.7C204.8 383.2 256.2 434.8 319.7 435C383.2 435.2 434.8 383.8 435 320.3C435.2 256.8 383.8 205.2 320.3 205zM319.7 245.4C360.9 245.2 394.4 278.5 394.6 319.7C394.8 360.9 361.5 394.4 320.3 394.6C279.1 394.8 245.6 361.5 245.4 320.3C245.2 279.1 278.5 245.6 319.7 245.4zM413.1 200.3C413.1 185.5 425.1 173.5 439.9 173.5C454.7 173.5 466.7 185.5 466.7 200.3C466.7 215.1 454.7 227.1 439.9 227.1C425.1 227.1 413.1 215.1 413.1 200.3zM542.8 227.5C541.1 191.6 532.9 159.8 506.6 133.6C480.4 107.4 448.6 99.2 412.7 97.4C375.7 95.3 264.8 95.3 227.8 97.4C192 99.1 160.2 107.3 133.9 133.5C107.6 159.7 99.5 191.5 97.7 227.4C95.6 264.4 95.6 375.3 97.7 412.3C99.4 448.2 107.6 480 133.9 506.2C160.2 532.4 191.9 540.6 227.8 542.4C264.8 544.5 375.7 544.5 412.7 542.4C448.6 540.7 480.4 532.5 506.6 506.2C532.8 480 541 448.2 542.8 412.3C544.9 375.3 544.9 264.5 542.8 227.5zM495 452C487.2 471.6 472.1 486.7 452.4 494.6C422.9 506.3 352.9 503.6 320.3 503.6C287.7 503.6 217.6 506.2 188.2 494.6C168.6 486.8 153.5 471.7 145.6 452C133.9 422.5 136.6 352.5 136.6 319.9C136.6 287.3 134 217.2 145.6 187.8C153.4 168.2 168.5 153.1 188.2 145.2C217.7 133.5 287.7 136.2 320.3 136.2C352.9 136.2 423 133.6 452.4 145.2C472 153 487.1 168.1 495 187.8C506.7 217.3 504 287.3 504 319.9C504 352.5 506.7 422.6 495 452z"/></symbol>
<symbol id="icon-tiktok" viewBox="0 0 640 640"><path d="M544.5 273.9C500.5 274 457.5 260.3 421.7 234.7L421.7 413.4C421.7 446.5 411.6 478.8 392.7 506C373.8 533.2 347.1 554 316.1 565.6C285.1 577.2 251.3 579.1 219.2 570.9C187.1 562.7 158.3 545 136.5 520.1C114.7 495.2 101.2 464.1 97.5 431.2C93.8 398.3 100.4 365.1 116.1 336C131.8 306.9 156.1 283.3 185.7 268.3C215.3 253.3 248.6 247.8 281.4 252.3L281.4 342.2C266.4 337.5 250.3 337.6 235.4 342.6C220.5 347.6 207.5 357.2 198.4 369.9C189.3 382.6 184.4 398 184.5 413.8C184.6 429.6 189.7 444.8 199 457.5C208.3 470.2 221.4 479.6 236.4 484.4C251.4 489.2 267.5 489.2 282.4 484.3C297.3 479.4 310.4 469.9 319.6 457.2C328.8 444.5 333.8 429.1 333.8 413.4L333.8 64L421.8 64C421.7 71.4 422.4 78.9 423.7 86.2C426.8 102.5 433.1 118.1 442.4 131.9C451.7 145.7 463.7 157.5 477.6 166.5C497.5 179.6 520.8 186.6 544.6 186.6L544.6 274z"/></symbol>
<symbol id="icon-facebook" viewBox="0 0 640 640"><path d="M240 363.3L240 576L356 576L356 363.3L442.5 363.3L460.5 265.5L356 265.5L356 230.9C356 179.2 376.3 159.4 428.7 159.4C445 159.4 458.1 159.8 465.7 160.6L465.7 71.9C451.4 68 416.4 64 396.2 64C289.3 64 240 114.5 240 223.4L240 265.5L174 265.5L174 363.3L240 363.3z"/></symbol>
</defs>
</svg>